<svg fill="none" height="1800" viewBox="0 0 1800 1800" width="1800" xmlns="http://www.w3.org/2000/svg"><circle cx="900" cy="900" fill="#be123c" r="900"/><circle cx="900" cy="900" fill="#fff" r="800"/><path clip-rule="evenodd" d="m1445.64 1487.76c32.25-30.06 62.01-62.75 88.96-97.73-70.51-99.25-140.85-198.64-211.03-298.17-.56-.53-1.23-.86-2-1.01-38.14 15.09-77.67 21.43-118.58 19.04 1.61 4.56 3.77 8.9 6.5 13.02 78.72 121.63 157.44 243.25 236.15 364.85zm143.26-177.75c23.91-40.28 44.41-82.83 61.07-127.26-73.1-56.73-146.04-113.75-218.82-171.04-19.25 21.28-40.6 39.98-64.05 56.1 74.02 80.66 147.95 161.4 221.8 242.2zm86.42-207.5c13.69-52.92 22.11-107.958 24.68-164.525-70.3-12.284-140.56-24.781-210.81-37.488-1.15.319-1.98.986-2.5 2.004-6.49 24.669-15.99 48.046-28.52 70.131 72.01 43.888 144.4 87.188 217.15 129.878zm24.5-242.257c-2.18-43.546-7.83-86.177-16.68-127.62-66.99 4.82-133.97 9.679-200.96 14.578 10.23 33.629 14.57 68.027 13.01 103.193zm-35.62-199.665c-16.48-52.535-38.21-102.739-64.59-149.994-16.46 9.242-32.92 18.484-49.38 27.726-49.37 27.718-98.73 55.437-148.1 83.155-.86.691-1.52 1.525-2 2.505 24.15 21.334 44 46.047 59.54 74.139.96 1.396 2.29 2.065 4 2.003 66.81-13.405 133.65-26.583 200.53-39.534zm-105.33-215.398c-30.26-43.731-64.74-84.303-102.87-121.122-63.71 78.226-127.36 156.489-190.97 234.79.21.587.54 1.088 1 1.503 16.4 2.912 32.42 7.253 48.04 13.024 15.24 6.468 30.25 13.146 45.03 20.038 66.54-49.496 133.13-98.907 199.77-148.233zm-307.19-264.549c48.09 23.555 93.46 51.793 135.54 84.12-60.32 96.976-120.57 194.007-180.73 291.092-33.79 4.111-67.65 8.119-101.57 12.022-1.33-.333-2.67-.668-4-1.002 50.39-128.706 100.65-257.45 150.76-386.232zm-231.88-72.27c45.8 6.865 90.33 17.614 133.25 31.902-36.53 144.855-72.92 289.727-109.17 434.615-28.66 3.559-57.343 6.898-86.062 10.019 21.135-158.779 41.795-317.624 61.982-476.536zm-261.705 3.731c37.049-6.649 74.982-10.745 113.611-12.102h37.077c-.49 163.641-1.157 327.28-2.001 490.918-30.003 3.82-60.024 7.494-90.063 11.021-19.932-163.228-39.473-326.507-58.624-489.837zm-285.835 111.447c54.746-34.742 113.991-63.016 176.665-83.749 39.461 155.944 78.381 311.993 116.758 468.15-34.54 3.801-69.064 7.809-103.572 12.023-1.437-.06-2.771-.393-4.003-1.002-62.121-131.747-124.07-263.554-185.848-395.422zm-194.786 173.813c33.029-40.889 69.994-78.46 110.317-112.135 70.374 110.615 140.799 221.195 211.276 331.74 2.221 3.046 3.722 6.385 4.503 10.019-15.376 1.506-30.72 3.343-46.032 5.51-16.592 3.431-32.937 7.439-49.035 12.022-77.083-82.352-154.093-164.737-231.029-247.156zm-125.851 219.12c18.988-50.052 42.84-97.706 70.977-142.384 78.307 65.327 156.596 130.65 234.868 195.968-22.407 15.236-42.921 32.935-61.543 53.1-2.066 3.232-4.567 5.904-7.506 8.015-79.049-38.068-157.981-76.301-236.796-114.699zm-49.362 220.163c3.722-46.904 11.477-92.67 22.918-136.952 77.342 26.117 154.749 51.975 232.219 77.574.16 1.702-.006 3.372-.501 5.009-11.672 23.204-19.844 47.582-24.517 73.137-76.749-5.772-153.456-12.027-230.119-18.768zm15.391 233.845c-10.296-47.88-16.32-97.351-17.652-147.992 75.707-3.931 151.499-7.257 227.377-9.978.741 12.055 1.908 24.078 3.502 36.067 2.51 12.717 5.012 25.408 7.505 38.071-73.681 27.592-147.258 55.542-220.732 83.832zm86.959 227.41c-25.922-45.44-47.53-93.67-64.265-144.12 72.601-39.21 145.285-78.21 218.052-117.03 1.531.03 2.698.7 3.503 2.01 16.157 29.71 37.005 55.76 62.544 78.14-73.194 60.42-146.471 120.75-219.834 181zm157.388 196.38c-39.404-35.85-75.222-75.59-106.85-118.61 71.365-75.44 142.807-150.84 214.327-226.21 1.001-.67 2.002-.67 3.002 0 17.718 9.98 36.397 17.5 56.039 22.55-55.307 107.51-110.813 214.94-166.518 322.27zm218.266 141.62c-47.261-20.66-92.145-45.75-134.126-74.76 46.146-125.74 92.451-251.45 138.918-377.11 28.632.13 56.985-2.88 85.059-9.02.22.09.439.18.658.26l.355.15.219.08c.424.17.847.34 1.27.51-31.076 153.24-61.86 306.54-92.353 459.89zm254.234 63.93c-49.334-4.02-97.402-12.51-143.8-25.08 11.893-173.29 24.379-346.55 37.458-519.78 26.218-12.92 51.402-27.45 75.553-43.58 1.294-.49 2.629-.66 4.003-.5 9.022 196.31 17.951 392.62 26.786 588.94zm274.061-24.73c-46.66 12.55-95 20.99-144.617 24.9-36.169-205.68-72.234-411.4-108.197-617.16.333-1 .668-2.01 1.001-3.01 35.797-20.94 74.324-29.62 115.581-26.05 1.982.13 3.649.8 5.003 2.01 43.569 206.49 87.319 412.93 131.229 619.31zm248.66-115.9c-39.56 27.58-81.73 51.68-126.06 71.85-65.54-187.6-130.64-375.34-195.29-563.24 33.86 10.3 67.55 20.99 101.07 32.06 34.87 72.7 69.73 145.39 104.59 218.08 38.56 80.42 77.13 160.84 115.69 241.25zm-161.24-891.138c34.96-1.641 56.8 14.389 65.55 48.09 3.51 25.525-5.33 45.395-26.52 59.612-28.26 14.087-53.45 9.913-75.55-12.523-13.5-18.872-16.17-39.244-8.01-61.115 9.15-19.001 23.99-30.356 44.53-34.064zm-555.384 77.145h-5.004c-33.174 4.359-66.531 8.366-100.07 12.022 2.4 28.135 5.569 56.187 9.507 84.158 19.071 15.425 38.419 30.453 58.041 45.084 1.945-.941 3.613-2.277 5.003-4.007 13.295-17.654 26.971-35.02 41.029-52.098.667-4.007.667-8.015 0-12.022-2.919-24.378-5.754-48.757-8.506-73.137zm675.474 18.034c29.33-2.28 50.17 9.743 62.54 36.067 9.37 28.65 2.19 52.194-21.51 70.632-28.15 15.033-53.67 11.527-76.56-10.52-16.37-22.87-17.7-46.581-4-71.133 9.94-13.569 23.12-21.918 39.53-25.046zm-149.61 73.136c-8.49-32.58-29.68-48.61-63.54-48.09-21.25 3.397-36.76 14.751-46.53 34.064-10.04 27.578-4.2 51.122 17.51 70.632 20.87 13.684 42.56 15.019 65.04 4.008 21.77-14.374 30.95-34.578 27.52-60.614zm-422.792-1.002c3.608-.289 7.111.045 10.507 1.002 4.167 34.706 8.003 69.437 11.508 104.195-27.959 3.667-55.979 6.505-84.058 8.516-19.183-15.035-38.196-30.23-57.04-45.585 14.982-19.809 30.326-39.346 46.032-58.61 24.49-3.149 48.841-6.321 73.051-9.518zm-214.15 26.55c-1.974-.496-3.976-.663-6.004-.501-25.806 3.646-51.824 6.652-78.055 9.017 3.93 35.408 7.933 70.809 12.009 106.199 27.69-3.062 55.376-6.235 83.058-9.518 15.832-19.358 31.177-39.062 46.032-59.111-18.664-15.667-37.677-31.03-57.04-46.086zm693.482 21.54c33.67-.951 54.85 14.745 63.55 47.089 3.98 34.623-10.53 57.165-43.53 67.626-35.13 5.06-58.3-9.138-69.55-42.58-5.2-30.833 5.97-53.376 33.52-67.626 5.38-1.844 10.72-3.346 16.01-4.509zm-610.424 43.582c-1.718-1.562-3.719-2.397-6.004-2.505-14.605 19.142-29.449 38.178-44.531 57.107 2.502 28.061 5.338 56.111 8.506 84.161 35.437-3.35 70.794-7.36 106.074-12.03-2.955-28.13-6.458-56.181-10.507-84.153-18.134-13.812-35.98-28.006-53.538-42.58z" fill="#be123c" fill-rule="evenodd"/></svg>